<?xml version="1.0" encoding="UTF-8" standalone="no"?>
<!-- Created with Inkscape (http://www.inkscape.org/) -->

<svg
   width="29.826534mm"
   height="7.4275565mm"
   viewBox="0 0 29.826534 7.4275565"
   version="1.1"
   id="svg1"
   xml:space="preserve"
   xmlns="http://www.w3.org/2000/svg"
   xmlns:svg="http://www.w3.org/2000/svg"><defs
     id="defs1" /><g
     id="layer1"><g
       id="g1"
       transform="matrix(0.7515367,0,0,0.7515367,-8.6973328,-109.29607)"><path
         style="fill:#f2f2f2;stroke-width:0.221297"
         d="m 48.884431,155.26178 c -0.0095,-0.0382 -0.01689,-1.40693 -0.01624,-3.0416 6.64e-4,-1.63467 8.86e-4,-2.9877 4.43e-4,-3.00675 0.0135,-0.14411 -0.01687,-0.0884 -0.361002,0.24247 -0.011,0.0106 -0.04677,0.0745 -0.103937,0.13161 -0.139747,0.13966 -0.477912,0.52394 -0.477912,0.54308 0,0.008 -0.05922,0.077 -0.13161,0.15239 -0.07239,0.0754 -0.177914,0.19131 -0.23451,0.25761 -0.0566,0.0663 -0.143875,0.16858 -0.193951,0.2273 -0.05007,0.0587 -0.150849,0.17094 -0.223939,0.24936 -0.284686,0.30548 -0.462811,0.50914 -0.462811,0.52918 0,0.007 -0.05922,0.0735 -0.131608,0.14782 -0.215942,0.22196 -0.435772,0.47909 -0.445345,0.5209 -0.005,0.0215 -0.02674,0.0391 -0.04849,0.0391 -0.02173,0 -0.03953,0.0116 -0.03953,0.0258 0,0.0142 -0.05922,0.0867 -0.131608,0.16119 -0.07239,0.0744 -0.16278,0.17682 -0.200875,0.22754 -0.03809,0.0507 -0.10979,0.13444 -0.159317,0.18607 -0.04952,0.0517 -0.09005,0.0991 -0.09005,0.10547 0,0.006 -0.05922,0.0718 -0.131609,0.14537 -0.154943,0.15747 -0.348897,0.38571 -0.363656,0.42794 -0.01582,0.0453 -0.110573,0.13363 -0.14332,0.13363 -0.03211,0 -0.06305,-0.0326 -0.345017,-0.36285 -0.106671,-0.12496 -0.253172,-0.28829 -0.325559,-0.36296 -0.07239,-0.0747 -0.131607,-0.14516 -0.131607,-0.15668 0,-0.0115 -0.06235,-0.0845 -0.138538,-0.16238 -0.07619,-0.0778 -0.138534,-0.1502 -0.138534,-0.16087 0,-0.0107 -0.06716,-0.0855 -0.149243,-0.16625 -0.08209,-0.0808 -0.153775,-0.15853 -0.159317,-0.17276 -0.01144,-0.0294 -0.269272,-0.32818 -0.404898,-0.46921 -0.04952,-0.0514 -0.09005,-0.0991 -0.09005,-0.10564 0,-0.006 -0.04052,-0.0538 -0.09004,-0.10498 -0.04952,-0.0511 -0.177325,-0.19112 -0.283997,-0.31108 -0.106674,-0.11995 -0.219487,-0.24596 -0.250701,-0.28 -0.03121,-0.034 -0.106022,-0.12072 -0.166243,-0.1926 -0.11336,-0.13529 -0.12527,-0.14899 -0.363568,-0.41807 -0.07879,-0.0889 -0.230517,-0.27045 -0.344102,-0.39725 -0.677188,-0.75604 -0.722631,-0.86046 -0.701792,-0.61932 -0.0096,0.0251 -0.01656,1.39349 -0.01541,3.04086 l 0.0022,2.99519 -1.172049,-0.006 -1.172049,-0.006 -0.0071,-4.89103 -0.007,-4.89104 0.284072,0.002 c 0.441015,0.003 0.937997,0.0709 1.119476,0.15262 0.04802,0.0217 0.105818,0.0393 0.128441,0.0393 0.02262,0 0.07685,0.0187 0.120494,0.0414 0.04365,0.0228 0.105889,0.0415 0.138311,0.0416 0.03243,1e-4 0.07447,0.0189 0.09344,0.0417 0.01896,0.0228 0.05065,0.0416 0.07042,0.0416 0.03374,0 0.203975,0.0805 0.234344,0.11083 0.04188,0.0418 0.195859,0.13854 0.220555,0.13854 0.01587,0 0.02883,0.0187 0.02883,0.0416 0,0.0228 0.01246,0.0416 0.02771,0.0416 0.02633,0 0.138536,0.0986 0.138536,0.12178 0,0.006 0.05743,0.0715 0.127622,0.14546 0.07019,0.074 0.179289,0.19622 0.242436,0.27165 0.06315,0.0754 0.192741,0.21638 0.287986,0.31324 0.09524,0.0969 0.173168,0.18559 0.173168,0.19718 0,0.0116 0.04052,0.0582 0.09004,0.10352 0.04952,0.0453 0.214731,0.21857 0.367119,0.38493 0.15239,0.16637 0.298891,0.32482 0.32556,0.35211 0.02667,0.0273 0.04849,0.0621 0.04849,0.0774 0,0.0153 0.01779,0.0277 0.03953,0.0277 0.02173,0 0.04356,0.0192 0.04848,0.0426 0.0087,0.0414 0.215736,0.27392 0.570027,0.64033 0.09524,0.0985 0.17317,0.18886 0.17317,0.2008 0,0.0119 0.04052,0.0601 0.09005,0.10701 0.04952,0.0469 0.127451,0.12747 0.173169,0.17901 0.04572,0.0515 0.154814,0.17119 0.242437,0.2659 0.08763,0.0947 0.159316,0.18449 0.159316,0.1995 0,0.015 0.01246,0.0273 0.02771,0.0273 0.03323,0 0.138536,0.10145 0.138536,0.13344 0,0.0125 0.04052,0.0595 0.09005,0.10461 0.114066,0.10387 0.353012,0.37867 0.353156,0.40614 5.9e-5,0.0114 0.03337,0.0207 0.07402,0.0207 0.07465,0 0.303726,-0.21608 0.577214,-0.54447 0.06095,-0.0732 0.170052,-0.19318 0.242436,-0.26664 0.07239,-0.0734 0.131608,-0.13847 0.131608,-0.14448 0,-0.006 0.05299,-0.0673 0.117757,-0.13619 0.06476,-0.0689 0.211266,-0.22741 0.325557,-0.35222 0.114291,-0.1248 0.248325,-0.26905 0.297851,-0.32057 0.04952,-0.0515 0.09005,-0.0995 0.09005,-0.10659 0,-0.007 0.02182,-0.0354 0.04848,-0.0627 0.02667,-0.0274 0.154466,-0.16675 0.283998,-0.3097 0.12953,-0.14295 0.276031,-0.29969 0.325558,-0.34831 0.04952,-0.0487 0.09004,-0.10249 0.09004,-0.11977 0,-0.0172 0.0187,-0.0313 0.04157,-0.0313 0.02285,0 0.04156,-0.012 0.04156,-0.0268 0,-0.0147 0.04052,-0.0683 0.09005,-0.11899 0.04952,-0.0507 0.18356,-0.19696 0.297851,-0.32498 0.114292,-0.12803 0.242091,-0.26871 0.283997,-0.31261 0.04191,-0.0439 0.07619,-0.084 0.07619,-0.0891 0,-0.005 0.102864,-0.11819 0.228584,-0.25125 0.408735,-0.43259 0.60908,-0.62178 0.658418,-0.62178 0.01285,0 0.04004,-0.0156 0.0604,-0.0346 0.02036,-0.0191 0.08672,-0.0576 0.147442,-0.0855 0.06073,-0.028 0.145702,-0.0685 0.188844,-0.09 0.04314,-0.0216 0.107711,-0.0391 0.143486,-0.0391 0.03577,0 0.08183,-0.0168 0.102345,-0.0373 0.02052,-0.0205 0.08528,-0.0463 0.143925,-0.0574 0.05864,-0.011 0.126903,-0.0304 0.151696,-0.0432 0.07706,-0.0395 0.388443,-0.0859 0.807021,-0.12024 0.220963,-0.0181 0.417269,-0.0429 0.436235,-0.0553 0.02745,-0.0177 0.03592,0.97963 0.04156,4.8903 0.0039,2.70193 0.0036,4.92553 -4.43e-4,4.9413 -0.0051,0.0193 -0.381482,0.0269 -1.149843,0.0234 -0.676856,-0.003 -1.15505,0.005 -1.173683,0.0205 -0.02156,0.0177 -0.03692,0.004 -0.04888,-0.0436 z m -18.682566,0.0191 c -0.806701,-0.007 -0.837021,-0.009 -0.85386,-0.0623 -0.0096,-0.0303 -0.02909,-0.055 -0.0433,-0.055 -0.01421,0 -0.02584,-0.0168 -0.02584,-0.0373 0,-0.0329 -0.02536,-0.0703 -0.138023,-0.20395 -0.01552,-0.0185 -0.02822,-0.0408 -0.02822,-0.0496 0,-0.0233 -0.120907,-0.19232 -0.145462,-0.20323 -0.01143,-0.005 -0.02078,-0.0212 -0.02078,-0.0358 0,-0.0305 -0.09571,-0.16983 -0.187023,-0.27235 -0.03428,-0.0385 -0.06234,-0.0848 -0.06234,-0.10291 0,-0.0181 -0.01605,-0.0494 -0.03568,-0.0695 -0.01962,-0.0201 -0.06596,-0.0865 -0.102988,-0.14745 -0.03702,-0.061 -0.09578,-0.14187 -0.130571,-0.17981 -0.03479,-0.038 -0.06326,-0.0838 -0.06326,-0.10197 0,-0.0181 -0.01558,-0.0499 -0.03464,-0.0707 -0.01905,-0.0207 -0.04711,-0.0585 -0.06235,-0.0839 -0.01524,-0.0253 -0.09316,-0.13986 -0.173169,-0.25447 -0.08,-0.11459 -0.145463,-0.21475 -0.145463,-0.22255 0,-0.008 -0.05442,-0.086 -0.120936,-0.17382 -0.06651,-0.0878 -0.129696,-0.18768 -0.140402,-0.22197 -0.01071,-0.0343 -0.03109,-0.0624 -0.0453,-0.0624 -0.01421,0 -0.02584,-0.0119 -0.02584,-0.0264 0,-0.0145 -0.06207,-0.10946 -0.137914,-0.21093 -0.07585,-0.10146 -0.159294,-0.23296 -0.185428,-0.2922 -0.02613,-0.0592 -0.05758,-0.10769 -0.06989,-0.10769 -0.0123,0 -0.02238,-0.016 -0.02238,-0.0354 0,-0.0195 -0.02182,-0.056 -0.04849,-0.0811 -0.07539,-0.0712 -0.165134,-0.2013 -0.190557,-0.27634 -0.0087,-0.0256 -0.03326,-0.0533 -0.05461,-0.0615 -0.02136,-0.008 -0.03905,-0.0371 -0.0393,-0.0642 -2.66e-4,-0.0272 -0.02993,-0.0773 -0.06592,-0.1114 -0.05685,-0.0538 -0.253607,-0.35279 -0.33499,-0.5089 -0.01504,-0.0288 -0.04174,-0.0525 -0.05934,-0.0525 -0.01759,0 -0.03981,-0.0311 -0.04937,-0.0693 -0.0095,-0.0381 -0.02962,-0.0693 -0.04456,-0.0693 -0.01495,0 -0.02718,-0.0191 -0.02718,-0.0424 0,-0.0233 -0.01757,-0.0492 -0.03906,-0.0574 -0.02148,-0.008 -0.04666,-0.0452 -0.05594,-0.0823 -0.0093,-0.037 -0.02911,-0.0672 -0.04406,-0.0672 -0.01495,0 -0.02718,-0.013 -0.02718,-0.0288 0,-0.0328 -0.113917,-0.2019 -0.145463,-0.21593 -0.01143,-0.005 -0.02078,-0.0331 -0.02078,-0.0623 0,-0.0293 -0.01278,-0.0531 -0.02839,-0.0531 -0.01562,0 -0.04025,-0.0311 -0.05473,-0.0693 -0.01448,-0.0381 -0.03911,-0.0693 -0.05473,-0.0693 -0.01561,0 -0.02839,-0.0191 -0.02839,-0.0424 0,-0.0233 -0.0187,-0.0496 -0.04156,-0.0584 -0.02286,-0.008 -0.04156,-0.0367 -0.04156,-0.0622 0,-0.0254 -0.03649,-0.0862 -0.08109,-0.13505 -0.04461,-0.0489 -0.08908,-0.11395 -0.09884,-0.14471 -0.0098,-0.0308 -0.02938,-0.0559 -0.04359,-0.0559 -0.01421,0 -0.02584,-0.013 -0.02584,-0.0288 0,-0.0328 -0.113916,-0.2019 -0.145461,-0.21593 -0.01143,-0.005 -0.02078,-0.0273 -0.02078,-0.0494 0,-0.0221 -0.01757,-0.0469 -0.03906,-0.0551 -0.02148,-0.008 -0.04666,-0.0452 -0.05594,-0.0823 -0.0093,-0.037 -0.02911,-0.0672 -0.04406,-0.0672 -0.01495,0 -0.02718,-0.0191 -0.02718,-0.0424 0,-0.0233 -0.01757,-0.0492 -0.03906,-0.0575 -0.02148,-0.008 -0.04666,-0.0452 -0.05594,-0.0823 -0.0093,-0.037 -0.02911,-0.0672 -0.04406,-0.0672 -0.01495,0 -0.02718,-0.0191 -0.02718,-0.0424 0,-0.0233 -0.01757,-0.0492 -0.03906,-0.0574 -0.02148,-0.008 -0.04666,-0.0452 -0.05594,-0.0823 -0.0093,-0.037 -0.02912,-0.0672 -0.04406,-0.0672 -0.01495,0 -0.02718,-0.0138 -0.02718,-0.0307 0,-0.0168 -0.03741,-0.0779 -0.08312,-0.13559 -0.04572,-0.0577 -0.08312,-0.11301 -0.08312,-0.12286 0,-0.0247 -0.119868,-0.19364 -0.145462,-0.20501 -0.01143,-0.005 -0.02078,-0.0273 -0.02078,-0.0494 0,-0.0221 -0.01757,-0.0469 -0.03906,-0.0551 -0.02148,-0.008 -0.04666,-0.0452 -0.05594,-0.0823 -0.0093,-0.037 -0.02912,-0.0672 -0.04406,-0.0672 -0.01495,0 -0.02718,-0.0191 -0.02718,-0.0424 0,-0.0233 -0.0187,-0.0496 -0.04156,-0.0584 -0.02285,-0.008 -0.04156,-0.0276 -0.04156,-0.0418 0,-0.0224 -0.09919,-0.17821 -0.138535,-0.21756 -0.0245,-0.0245 -0.08247,-0.12287 -0.11021,-0.18702 -0.01482,-0.0343 -0.03838,-0.0623 -0.05234,-0.0623 -0.01396,0 -0.03322,-0.0312 -0.04277,-0.0693 -0.0095,-0.0381 -0.02962,-0.0693 -0.04456,-0.0693 -0.01495,0 -0.02718,-0.0191 -0.02718,-0.0424 0,-0.0233 -0.01757,-0.0492 -0.03906,-0.0575 -0.02148,-0.008 -0.04666,-0.0452 -0.05594,-0.0823 -0.0093,-0.037 -0.02911,-0.0672 -0.04406,-0.0672 -0.01495,0 -0.02718,-0.0191 -0.02718,-0.0424 0,-0.0233 -0.0187,-0.0496 -0.04156,-0.0584 -0.02285,-0.008 -0.04156,-0.0282 -0.04156,-0.0433 0,-0.015 -0.02182,-0.0559 -0.04848,-0.0908 -0.02667,-0.035 -0.06719,-0.0911 -0.09005,-0.12471 -0.02285,-0.0336 -0.06338,-0.0869 -0.09005,-0.11827 -0.02667,-0.0314 -0.04849,-0.0739 -0.04849,-0.0944 0,-0.0205 -0.01247,-0.0374 -0.02771,-0.0374 -0.01524,0 -0.02771,-0.013 -0.02771,-0.0288 0,-0.0262 -0.102791,-0.18758 -0.140556,-0.22053 -0.0087,-0.007 -0.0248,-0.0326 -0.03572,-0.0554 -0.04073,-0.0853 -0.08874,-0.15631 -0.149649,-0.22135 -0.05743,-0.0613 -0.05873,-0.0692 -0.01551,-0.0934 0.06218,-0.0348 1.585033,4.5e-4 1.629953,0.0378 0.01824,0.0151 0.09424,0.0349 0.168897,0.0438 0.07466,0.009 0.182748,0.0339 0.240202,0.0555 0.05745,0.0216 0.136271,0.0392 0.175149,0.0392 0.03888,0 0.08939,0.0187 0.112246,0.0416 0.02285,0.0228 0.07707,0.0416 0.120457,0.0416 0.04339,0 0.12043,0.0208 0.171191,0.0464 0.05076,0.0255 0.125388,0.0629 0.165836,0.0831 0.04045,0.0202 0.09343,0.0367 0.117755,0.0367 0.02432,0 0.04421,0.0128 0.04421,0.0284 0,0.0157 0.02805,0.0407 0.06234,0.0558 0.189049,0.083 0.436387,0.28472 0.436387,0.35593 0,0.0155 0.01741,0.0382 0.03867,0.0503 0.02127,0.0122 0.06617,0.0751 0.09977,0.1399 0.0336,0.0647 0.07095,0.11776 0.08301,0.11776 0.01204,0 0.02973,0.0312 0.0393,0.0693 0.0095,0.0381 0.02962,0.0693 0.04456,0.0693 0.01495,0 0.02718,0.0191 0.02718,0.0424 0,0.0233 0.0187,0.0496 0.04156,0.0584 0.02285,0.008 0.04156,0.0305 0.04156,0.0483 0,0.0179 0.02494,0.0537 0.05541,0.0799 0.03048,0.0261 0.05541,0.0663 0.05541,0.0893 0,0.023 0.01111,0.0418 0.0247,0.0418 0.01359,0 0.03253,0.0311 0.04209,0.0693 0.0095,0.0381 0.02962,0.0693 0.04456,0.0693 0.01495,0 0.02718,0.011 0.02718,0.0246 0,0.0364 0.198483,0.33562 0.222626,0.33562 0.0114,0 0.02856,0.0311 0.03811,0.0693 0.0095,0.0381 0.02962,0.0693 0.04456,0.0693 0.01495,0 0.02718,0.0191 0.02718,0.0424 0,0.0233 0.0187,0.0496 0.04156,0.0584 0.02286,0.008 0.04156,0.0276 0.04156,0.0418 0,0.025 0.1071,0.18943 0.141728,0.21757 0.0093,0.007 0.0258,0.0419 0.0365,0.0761 0.0107,0.0343 0.02963,0.0624 0.04206,0.0624 0.01244,0 0.02994,0.0218 0.03889,0.0484 0.01955,0.0582 0.06158,0.12517 0.163352,0.26017 0.04191,0.0556 0.07619,0.11317 0.07619,0.12797 0,0.0148 0.03721,0.0691 0.08268,0.12069 0.04548,0.0516 0.08287,0.10177 0.08312,0.11143 8.85e-4,0.035 0.202899,0.32871 0.226072,0.32871 0.01305,0 0.02374,0.0187 0.02374,0.0415 0,0.0228 0.05611,0.1177 0.124682,0.21086 0.06858,0.0931 0.124681,0.18708 0.124681,0.20874 0,0.0217 0.0187,0.0466 0.04156,0.0553 0.02286,0.008 0.04157,0.0276 0.04157,0.0418 0,0.0306 0.115459,0.19962 0.145462,0.21295 0.01143,0.005 0.02078,0.0216 0.02078,0.0367 0,0.0151 0.05435,0.0982 0.120761,0.18471 0.06642,0.0864 0.1296,0.18527 0.140403,0.21955 0.0108,0.0343 0.02992,0.0624 0.04248,0.0624 0.01256,0 0.03066,0.0311 0.04022,0.0693 0.0095,0.0381 0.02962,0.0693 0.04456,0.0693 0.01495,0 0.02718,0.0191 0.02718,0.0424 0,0.0233 0.0187,0.0496 0.04156,0.0584 0.02286,0.008 0.04156,0.0276 0.04156,0.0418 0,0.0224 0.09919,0.17823 0.138535,0.21758 0.0245,0.0245 0.08247,0.12286 0.110209,0.18701 0.07138,0.0662 0.09882,0.16748 0.166862,0.22776 0,0.0321 0.281286,0.45393 0.311511,0.46724 0.154292,0.20758 0.141742,0.22277 0.188336,0.22627 0.03556,0.003 0.05171,-0.0177 0.137415,-0.13971 0.198387,-0.2823 0.357319,-0.50638 0.544209,-0.83486 0.05392,-0.0948 0.120761,-0.16959 0.120761,-0.18472 0,-0.0151 0.0093,-0.0316 0.02078,-0.0367 0.03155,-0.014 0.145461,-0.18311 0.145461,-0.21593 0,-0.0159 0.01164,-0.0288 0.02584,-0.0288 0.01421,0 0.03423,-0.0265 0.04449,-0.0587 0.02341,-0.0737 0.181227,-0.30783 0.22752,-0.33745 0.01906,-0.0122 0.03464,-0.0451 0.03464,-0.0732 0,-0.0281 0.0187,-0.0583 0.04156,-0.067 0.02285,-0.008 0.04156,-0.0351 0.04156,-0.0584 0,-0.0233 0.01162,-0.0424 0.02584,-0.0424 0.01421,0 0.0346,-0.028 0.04529,-0.0623 0.01069,-0.0343 0.02743,-0.0686 0.03717,-0.0761 0.02456,-0.0192 0.307302,-0.44168 0.307302,-0.45917 0,-0.0179 0.05473,-0.0852 0.117755,-0.14465 0.02667,-0.0252 0.04849,-0.0679 0.04849,-0.095 0,-0.0271 0.01047,-0.0493 0.02326,-0.0493 0.01279,0 0.03786,-0.028 0.05571,-0.0624 0.01783,-0.0343 0.05712,-0.0998 0.08726,-0.14546 0.03014,-0.0457 0.06336,-0.10187 0.07381,-0.12468 0.01045,-0.0228 0.03552,-0.0516 0.05572,-0.0637 0.02021,-0.0122 0.03672,-0.0402 0.03672,-0.0623 0,-0.0221 0.01224,-0.0401 0.02718,-0.0401 0.01494,0 0.035,-0.0312 0.04456,-0.0693 0.0095,-0.0381 0.0285,-0.0693 0.04209,-0.0693 0.01359,0 0.0247,-0.0135 0.0247,-0.03 0,-0.0165 0.04364,-0.0832 0.09697,-0.14831 0.05333,-0.065 0.09697,-0.13264 0.09697,-0.15012 0,-0.0175 0.01224,-0.0317 0.02718,-0.0317 0.01494,0 0.03478,-0.0303 0.04407,-0.0672 0.0093,-0.037 0.03446,-0.074 0.05594,-0.0823 0.02148,-0.008 0.03906,-0.039 0.03906,-0.0684 0,-0.0294 0.0187,-0.0605 0.04156,-0.0693 0.02285,-0.008 0.04156,-0.0294 0.04156,-0.0457 0,-0.0164 0.01271,-0.0448 0.02823,-0.0632 0.112655,-0.13359 0.138021,-0.17107 0.138021,-0.20394 0,-0.0205 0.01277,-0.0373 0.02839,-0.0373 0.01562,0 0.04053,-0.028 0.05535,-0.0623 0.0326,-0.0754 0.08418,-0.15756 0.130988,-0.20861 0.01906,-0.0208 0.03464,-0.0543 0.03464,-0.0744 0,-0.0201 0.0187,-0.0438 0.04156,-0.0526 0.02286,-0.008 0.04157,-0.0282 0.04157,-0.0431 0,-0.0149 0.03741,-0.0826 0.08312,-0.15035 0.04572,-0.0677 0.08312,-0.13591 0.08312,-0.15147 0,-0.0156 0.0093,-0.0325 0.02078,-0.0375 0.03035,-0.0135 0.14546,-0.18253 0.14546,-0.21361 0,-0.0146 0.0093,-0.0307 0.02078,-0.0358 0.01144,-0.005 0.06791,-0.0784 0.125511,-0.16306 0.0576,-0.0847 0.141761,-0.17571 0.187023,-0.20245 0.04526,-0.0268 0.08229,-0.0604 0.08229,-0.0748 0,-0.0144 0.01781,-0.0261 0.03959,-0.0261 0.02177,0 0.05606,-0.0156 0.07619,-0.0346 0.02013,-0.0191 0.09555,-0.0634 0.167593,-0.0985 0.07204,-0.0352 0.138234,-0.0757 0.147097,-0.09 0.0089,-0.0143 0.04156,-0.026 0.07263,-0.026 0.03108,0 0.102044,-0.0197 0.157681,-0.0439 0.05563,-0.0242 0.142106,-0.0615 0.192148,-0.0831 0.05004,-0.0216 0.131088,-0.0393 0.180096,-0.0394 0.04902,-1e-4 0.124821,-0.0188 0.168469,-0.0416 0.04365,-0.0228 0.125831,-0.0414 0.182622,-0.0414 0.0568,0 0.164461,-0.0189 0.239269,-0.0419 0.164196,-0.0506 1.577888,-0.0943 1.655057,-0.0511 0.04314,0.0242 0.04183,0.032 -0.01556,0.0934 -0.06657,0.0711 -0.111849,0.14056 -0.157809,0.24213 -0.01551,0.0342 -0.03953,0.0623 -0.05337,0.0623 -0.01383,0 -0.03249,0.0218 -0.04144,0.0486 -0.01582,0.0471 -0.07302,0.14517 -0.101007,0.17317 -0.03935,0.0393 -0.138537,0.19512 -0.138537,0.21757 0,0.0142 -0.0187,0.033 -0.04156,0.0418 -0.02286,0.008 -0.04157,0.0351 -0.04157,0.0584 0,0.0233 -0.01224,0.0424 -0.02718,0.0424 -0.01494,0 -0.03477,0.0303 -0.04406,0.0672 -0.0093,0.037 -0.03446,0.074 -0.05594,0.0823 -0.02148,0.008 -0.03907,0.0341 -0.03907,0.0575 0,0.0233 -0.01224,0.0424 -0.02718,0.0424 -0.01494,0 -0.035,0.0311 -0.04456,0.0693 -0.0095,0.0381 -0.02782,0.0693 -0.04058,0.0693 -0.02334,0 -0.09273,0.11085 -0.125733,0.20087 -0.0098,0.0267 -0.03502,0.0484 -0.0561,0.0484 -0.02109,0 -0.03833,0.0234 -0.03833,0.0521 0,0.0286 -0.0187,0.0675 -0.04156,0.0865 -0.02286,0.019 -0.04156,0.0464 -0.04156,0.0608 0,0.0144 -0.01558,0.0425 -0.03464,0.0624 -0.01906,0.0199 -0.05334,0.0647 -0.07619,0.0996 -0.02286,0.0349 -0.06026,0.0834 -0.08312,0.10796 -0.02286,0.0245 -0.06649,0.0942 -0.09697,0.15475 -0.03048,0.0606 -0.071,0.12012 -0.09005,0.13231 -0.01906,0.0122 -0.03464,0.0403 -0.03464,0.0623 0,0.0221 -0.01162,0.0402 -0.02584,0.0402 -0.01421,0 -0.0346,0.028 -0.04529,0.0623 -0.01069,0.0343 -0.02713,0.0686 -0.0365,0.0762 -0.02719,0.0221 -0.141728,0.19007 -0.141728,0.20785 0,0.009 -0.01271,0.0312 -0.02822,0.0496 -0.10676,0.1266 -0.138023,0.16926 -0.138023,0.18838 0,0.0119 -0.03741,0.0628 -0.08312,0.11277 -0.04572,0.05 -0.08312,0.10166 -0.08312,0.11464 0,0.013 -0.05299,0.0944 -0.117754,0.18085 -0.06476,0.0864 -0.141823,0.20085 -0.17124,0.25418 -0.02942,0.0533 -0.104098,0.16556 -0.165958,0.24937 -0.06186,0.0838 -0.137534,0.19837 -0.16817,0.25456 -0.03063,0.0562 -0.08063,0.13102 -0.111114,0.16626 -0.08069,0.0934 -0.207833,0.28769 -0.259366,0.39654 -0.01443,0.0305 -0.04936,0.0803 -0.0776,0.11082 -0.06673,0.072 -0.202263,0.27605 -0.248431,0.37405 -0.01078,0.0228 -0.0736,0.11339 -0.13962,0.20119 -0.06603,0.0877 -0.120242,0.16883 -0.120486,0.1801 -2.21e-4,0.0113 -0.03765,0.0627 -0.08312,0.11426 -0.04548,0.0516 -0.08268,0.10949 -0.08268,0.12866 0,0.0192 -0.0187,0.042 -0.04157,0.0508 -0.02285,0.008 -0.04156,0.0337 -0.04156,0.0554 0,0.0217 -0.0187,0.0467 -0.04156,0.0554 -0.02286,0.008 -0.04157,0.0413 -0.04157,0.0722 0,0.0309 -0.01277,0.0563 -0.02839,0.0563 -0.01562,0 -0.04052,0.028 -0.05535,0.0624 -0.04029,0.0932 -0.0921,0.17045 -0.130987,0.19533 -0.01906,0.0122 -0.03464,0.0403 -0.03464,0.0624 0,0.0221 -0.01162,0.0401 -0.02584,0.0401 -0.01421,0 -0.0346,0.028 -0.04529,0.0623 -0.01068,0.0343 -0.02713,0.0686 -0.0365,0.0762 -0.03508,0.0285 -0.141727,0.19271 -0.141727,0.21822 0,0.0146 -0.0093,0.0307 -0.02078,0.0358 -0.03,0.0134 -0.145464,0.18236 -0.145464,0.21296 0,0.0142 -0.0187,0.0331 -0.04156,0.0418 -0.02286,0.008 -0.04156,0.0351 -0.04156,0.0584 0,0.0233 -0.01224,0.0424 -0.02718,0.0424 -0.01494,0 -0.03477,0.0303 -0.04406,0.0672 -0.0093,0.037 -0.03446,0.074 -0.05594,0.0823 -0.02148,0.008 -0.03906,0.0341 -0.03906,0.0575 0,0.0233 -0.01162,0.0424 -0.02584,0.0424 -0.01421,0 -0.03444,0.0271 -0.04495,0.0602 -0.01051,0.0331 -0.03028,0.0736 -0.04394,0.09 -0.111492,0.13396 -0.134631,0.16572 -0.134631,0.18475 0,0.0119 -0.03741,0.0628 -0.08312,0.11276 -0.04572,0.05 -0.08312,0.11184 -0.08312,0.13728 0,0.0254 -0.0187,0.0534 -0.04156,0.0622 -0.02286,0.008 -0.04157,0.0294 -0.04157,0.0456 0,0.0297 -0.02617,0.067 -0.117754,0.16793 -0.02667,0.0294 -0.04849,0.0648 -0.04849,0.0788 0,0.014 -0.01,0.0296 -0.02224,0.0346 -0.01224,0.005 -0.07051,0.0902 -0.129497,0.18934 -0.101577,0.17056 -0.234701,0.35761 -0.311958,0.43836 -0.01927,0.0201 -0.03503,0.0545 -0.03503,0.0761 0,0.0218 -0.01246,0.0396 -0.02771,0.0396 -0.01525,0 -0.02771,0.0162 -0.02771,0.0359 0,0.0198 -0.0187,0.0603 -0.04156,0.09 -0.15382,0.20032 -0.235509,0.31711 -0.235509,0.33673 0,0.0664 -0.143749,0.0772 -0.933376,0.0702 z m -14.539311,-0.0273 c -0.181918,-0.005 -0.344004,-0.0196 -0.360192,-0.0328 -0.01618,-0.0132 -0.141646,-0.0327 -0.278796,-0.0433 -0.137151,-0.0106 -0.30279,-0.0368 -0.368088,-0.0582 -0.0653,-0.0214 -0.177511,-0.0393 -0.249363,-0.0398 -0.07185,-4.5e-4 -0.154843,-0.0192 -0.184424,-0.0416 -0.02958,-0.0224 -0.09431,-0.0407 -0.143827,-0.0407 -0.04952,0 -0.09686,-0.011 -0.105192,-0.0245 -0.0083,-0.0135 -0.07147,-0.033 -0.140318,-0.0433 -0.06885,-0.0104 -0.159392,-0.0366 -0.201217,-0.0584 -0.04183,-0.0218 -0.09252,-0.0397 -0.112661,-0.0398 -0.02013,-1e-4 -0.05531,-0.0189 -0.07817,-0.0417 -0.02286,-0.0228 -0.06408,-0.0416 -0.09161,-0.0416 -0.02752,0 -0.06556,-0.0187 -0.08453,-0.0416 -0.01897,-0.0228 -0.05298,-0.0416 -0.07557,-0.0416 -0.02259,0 -0.0965,-0.0375 -0.164239,-0.0831 -0.06774,-0.0457 -0.138122,-0.0833 -0.156407,-0.0836 -0.01829,-2.2e-4 -0.0955,-0.0563 -0.171596,-0.12468 -0.07609,-0.0684 -0.147192,-0.12424 -0.157996,-0.12424 -0.02965,0 -0.299356,-0.27579 -0.299356,-0.3061 0,-0.0145 -0.0187,-0.0264 -0.04156,-0.0264 -0.02285,0 -0.04156,-0.013 -0.04156,-0.0288 0,-0.0247 -0.0968,-0.1788 -0.138536,-0.22053 -0.02533,-0.0253 -0.07972,-0.12324 -0.138527,-0.24937 -0.03197,-0.0686 -0.07623,-0.15998 -0.09834,-0.20312 -0.02212,-0.0432 -0.04021,-0.1 -0.04021,-0.12631 0,-0.0264 -0.01831,-0.0721 -0.04067,-0.10166 -0.02238,-0.0296 -0.04108,-0.0927 -0.04156,-0.14035 -4.87e-4,-0.0476 -0.02005,-0.1409 -0.04349,-0.20731 -0.03747,-0.1062 -0.0425,-0.536 -0.04175,-3.57077 4.65e-4,-1.89751 9.3e-4,-3.48532 10e-4,-3.52845 l 1.88e-4,-0.0784 0.380972,0.0195 c 0.209535,0.0108 0.396323,0.0318 0.415083,0.0468 0.01877,0.0149 0.106039,0.0375 0.193951,0.0499 0.200571,0.0284 0.387425,0.0777 0.482744,0.12716 0.04045,0.0211 0.09656,0.0386 0.124683,0.039 0.02812,4.4e-4 0.07534,0.0192 0.104921,0.0416 0.02959,0.0224 0.06921,0.0407 0.08806,0.0407 0.01886,0 0.106865,0.0443 0.19558,0.0984 0.08871,0.0541 0.185712,0.11338 0.215546,0.13161 0.02983,0.0183 0.07013,0.0476 0.08955,0.0654 0.01942,0.0177 0.04898,0.0367 0.06569,0.0423 0.01671,0.005 0.03825,0.0597 0.04786,0.12023 0.0096,0.0606 0.02422,1.45562 0.03245,3.10015 0.01179,2.35673 0.0223,2.99251 0.0496,3.00161 0.01905,0.006 0.03464,0.047 0.03464,0.0904 0,0.0434 0.0187,0.0975 0.04156,0.1204 0.02286,0.0228 0.04156,0.0594 0.04156,0.0812 0,0.0554 0.399975,0.46303 0.45429,0.46303 0.02444,0 0.04444,0.0104 0.04444,0.0225 0,0.0237 0.256439,0.14374 0.307021,0.14374 0.01618,0 0.04812,0.0187 0.07099,0.0416 0.02286,0.0228 0.0895,0.0416 0.148102,0.0416 0.0586,0 0.110696,0.0122 0.115775,0.0271 0.0051,0.0149 0.12145,0.0349 0.2586,0.0445 0.137151,0.009 0.342875,0.0316 0.457167,0.0491 0.389736,0.0595 2.149003,-0.0143 2.228212,-0.0935 0.01493,-0.0149 0.07765,-0.0276 0.13936,-0.0281 0.06172,-4.4e-4 0.162086,-0.025 0.223042,-0.0545 0.06095,-0.0295 0.129531,-0.0549 0.152389,-0.0565 0.02285,-0.001 0.07896,-0.0272 0.124682,-0.0568 0.04572,-0.0297 0.117408,-0.0689 0.159315,-0.0871 0.04191,-0.0183 0.07619,-0.0431 0.07619,-0.0549 0,-0.0119 0.01283,-0.0217 0.02851,-0.0217 0.04083,0 0.387098,-0.3449 0.387098,-0.38558 0,-0.0187 0.0187,-0.0527 0.04156,-0.0755 0.02286,-0.0228 0.04157,-0.0641 0.04157,-0.0916 0,-0.0275 0.0187,-0.0656 0.04156,-0.0845 0.02315,-0.0192 0.04156,-0.0796 0.04156,-0.13638 0,-0.056 0.01559,-0.11748 0.03464,-0.13653 0.02718,-0.0272 0.03626,-0.6677 0.04218,-2.97452 l 0.0076,-2.93989 0.06636,-0.058 c 0.157311,-0.13754 0.215477,-0.1827 0.235299,-0.1827 0.01855,0 0.06162,-0.0316 0.18774,-0.13803 0.0184,-0.0155 0.0574,-0.0282 0.08665,-0.0282 0.02925,0 0.06871,-0.0187 0.08769,-0.0416 0.01897,-0.0228 0.06799,-0.0416 0.108926,-0.0416 0.04093,0 0.09863,-0.0183 0.128216,-0.0407 0.02958,-0.0224 0.08496,-0.0415 0.123051,-0.0425 0.0381,-0.001 0.100437,-0.0197 0.138535,-0.0415 0.0381,-0.0218 0.110409,-0.04 0.160692,-0.0406 0.05028,-4.4e-4 0.126209,-0.019 0.168723,-0.041 0.04805,-0.0249 0.212668,-0.0472 0.435011,-0.0591 0.196741,-0.0105 0.373197,-0.0313 0.392123,-0.0464 0.02736,-0.0217 0.03587,0.65306 0.04156,3.29387 0.0039,1.82663 -0.0017,3.42711 -0.01246,3.55665 -0.03174,0.3813 -0.08576,0.70384 -0.124446,0.74314 -0.01982,0.0201 -0.03605,0.0654 -0.03605,0.10051 0,0.0352 -0.0187,0.0795 -0.04156,0.0983 -0.02286,0.019 -0.04196,0.0548 -0.04244,0.0796 -4.87e-4,0.0248 -0.01919,0.0693 -0.04156,0.0989 -0.02238,0.0296 -0.04068,0.0714 -0.04068,0.093 0,0.0216 -0.04042,0.0909 -0.0898,0.15401 -0.04939,0.0632 -0.102377,0.1313 -0.117755,0.15144 -0.01537,0.0201 -0.04977,0.0607 -0.07644,0.09 -0.02667,0.0293 -0.04849,0.0596 -0.04849,0.0673 0,0.0177 -0.106502,0.12468 -0.124178,0.12468 -0.0074,0 -0.05686,0.0406 -0.110026,0.09 -0.1373,0.12789 -0.161314,0.14488 -0.409957,0.29021 -0.07237,0.0423 -0.131593,0.0863 -0.131609,0.0977 -1.5e-5,0.0114 -0.02435,0.0207 -0.05407,0.0207 -0.02972,0 -0.064,0.0156 -0.07619,0.0346 -0.02349,0.0367 -0.148344,0.0904 -0.320008,0.13752 -0.05715,0.0157 -0.103902,0.0395 -0.103902,0.0529 0,0.0134 -0.02182,0.0244 -0.04849,0.0245 -0.02667,1e-4 -0.08175,0.0175 -0.122418,0.0387 -0.04066,0.0213 -0.124757,0.0472 -0.186878,0.0577 -0.06212,0.0105 -0.119983,0.0305 -0.128581,0.0444 -0.0086,0.0139 -0.06165,0.0254 -0.1179,0.0255 -0.05625,9e-5 -0.134848,0.0171 -0.17467,0.038 -0.03982,0.0207 -0.170736,0.0469 -0.290924,0.058 -0.120187,0.0111 -0.230991,0.0298 -0.246229,0.0414 -0.01524,0.0116 -0.138928,0.0294 -0.274864,0.0393 -0.135937,0.0104 -0.263415,0.0316 -0.283284,0.0481 -0.0356,0.0296 -1.871501,0.0515 -2.626443,0.0313 z"
         id="path1" /></g></g></svg>
